Coordinates
version=1
nRows=65
nColumns=12
inDegrees=yes

Units are S.I. units (second, meters, Newtons, ...)
Angles are in degrees

endheader
time	SC_y	SC_z	SC_x	AC_y	AC_z	AC_x	GH_y	GH_z	GH_yy	EL_x	PS_y
       0.0              -31.28          11.27           65.9          39.06         -14.75         -3.778          80.17          55.06          13.42          17.25          128.9
   0.04968              -31.28          11.27           65.9          39.06         -14.75         -3.777          80.15          55.05          13.43          17.27          128.9
   0.09935              -31.29          11.27           65.9          39.06         -14.74         -3.776          80.12          55.04          13.44          17.28          128.9
     0.149              -31.29          11.27           65.9          39.06         -14.74         -3.775           80.1          55.03          13.45           17.3          128.9
    0.1987               -31.3          11.27          65.89          39.07         -14.74         -3.774          80.07          55.02          13.47          17.32          128.9
    0.2484               -31.3          11.27          65.89          39.07         -14.73         -3.772          80.04          55.01          13.48          17.34          128.9
    0.2981              -31.31          11.27          65.89          39.08         -14.73         -3.771          80.01           55.0          13.49          17.36          128.8
    0.3477              -31.31          11.27          65.89          39.08         -14.73          -3.77          79.97          54.99          13.51          17.38          128.8
    0.3974              -31.32          11.27          65.88          39.09         -14.72         -3.768          79.94          54.97          13.53           17.4          128.8
    0.4471              -31.32          11.27          65.88          39.09         -14.72         -3.767           79.9          54.96          13.54          17.43          128.8
    0.4968              -31.33          11.27          65.88           39.1         -14.71         -3.765          79.86          54.94          13.56          17.45          128.7
    0.5464              -31.34          11.27          65.87           39.1          -14.7         -3.763          79.81          54.93          13.58          17.48          128.7
    0.5961              -31.34          11.28          65.87          39.11          -14.7         -3.761          79.77          54.91          13.61          17.51          128.7
    0.6458              -31.35          11.28          65.87          39.12         -14.69         -3.759          79.71          54.89          13.63          17.54          128.7
    0.6955              -31.36          11.28          65.86          39.12         -14.68         -3.757          79.66          54.87          13.66          17.58          128.6
    0.7451              -31.37          11.28          65.86          39.13         -14.68         -3.754           79.6          54.85          13.69          17.62          128.6
    0.7948              -31.38          11.28          65.85          39.14         -14.67         -3.751          79.53          54.82          13.72          17.66          128.5
    0.8445              -31.39          11.28          65.85          39.15         -14.66         -3.748          79.46          54.79          13.75          17.71          128.5
    0.8942               -31.4          11.28          65.84          39.16         -14.65         -3.745          79.38          54.77          13.79          17.76          128.4
    0.9438              -31.42          11.28          65.83          39.17         -14.64         -3.742          79.29          54.73          13.83          17.81          128.4
    0.9935              -31.43          11.29          65.83          39.18         -14.62         -3.738           79.2           54.7          13.87          17.87          128.3
     1.043              -31.45          11.29          65.82           39.2         -14.61         -3.733           79.1          54.66          13.92          17.94          128.2
     1.093              -31.47          11.29          65.81          39.21          -14.6         -3.729          78.98          54.62          13.97          18.02          128.2
     1.143              -31.49          11.29           65.8          39.23         -14.58         -3.723          78.85          54.57          14.03           18.1          128.1
     1.192              -31.51          11.29          65.79          39.25         -14.56         -3.718          78.71          54.51           14.1          18.19          128.0
     1.242              -31.53           11.3          65.77          39.27         -14.54         -3.711          78.55          54.46          14.17          18.29          127.9
     1.292              -31.56           11.3          65.76          39.29         -14.52         -3.704          78.38          54.39          14.25           18.4          127.8
     1.341              -31.59           11.3          65.74          39.32         -14.49         -3.696          78.18          54.31          14.35          18.53          127.6
     1.391              -31.63          11.31          65.73          39.35         -14.46         -3.686          77.95          54.23          14.45          18.67          127.5
     1.441              -31.67          11.31          65.71          39.38         -14.43         -3.676           77.7          54.13          14.57          18.84          127.3
      1.49              -31.72          11.32          65.68          39.42         -14.39         -3.664          77.41          54.03           14.7          19.02          127.1
      1.54              -31.77          11.32          65.66          39.47         -14.35          -3.65          77.07           53.9          14.86          19.24          126.9
      1.59              -31.83          11.33          65.62          39.52          -14.3         -3.634          76.69          53.76          15.04          19.49          126.7
     1.639               -31.9          11.34          65.59          39.58         -14.24         -3.616          76.24          53.59          15.25          19.77          126.4
     1.689              -31.98          11.35          65.55          39.65         -14.17         -3.594          75.71          53.39          15.49          20.11          126.0
     1.739              -32.08          11.36           65.5          39.73         -14.09         -3.568          75.09          53.16          15.78          20.51          125.6
     1.788               -32.2          11.37          65.44          39.82         -13.99         -3.538          74.36          52.88          16.12          20.98          125.1
     1.838              -32.34          11.39          65.37          39.94         -13.88         -3.502          73.48          52.55          16.53          21.54          124.6
     1.888               -32.5          11.41          65.28          40.08         -13.74         -3.458          72.41          52.15          17.03          22.23          123.9
     1.937              -32.71          11.43          65.18          40.26         -13.57         -3.404          71.11          51.66          17.63          23.06          123.0
     1.987              -32.96          11.46          65.05          40.47         -13.36         -3.337           69.5          51.06          18.38           24.1          122.0
     2.037              -33.28          11.49          64.89          40.73         -13.09         -3.255          67.49          50.31          19.32          25.38          120.6
     2.086              -33.68          11.54          64.69          41.07         -12.76          -3.15          64.97          49.36          20.49           27.0          119.0
     2.136              -34.18           11.6          64.43          41.49         -12.34         -3.018          61.75          48.16          21.98          29.06          116.9
     2.186              -34.83          11.67           64.1          42.04         -11.81         -2.848          57.64          46.62           23.9           31.7          114.2
     2.235              -35.66          11.76          63.68          42.74         -11.12         -2.631          52.37          44.64          26.35          35.08          110.7
     2.285              -36.72          11.88          63.14          43.63         -10.24         -2.353          45.63          42.11          29.48           39.4          106.3
     2.335              -38.06          12.03          62.46          44.75         -9.131         -2.003          37.16          38.94          33.43          44.83          100.8
     2.384              -39.69          12.22          61.64          46.12         -7.782         -1.577          26.83          35.06          38.23          51.45          94.03
     2.434              -41.57          12.43          60.68           47.7         -6.219         -1.083          14.87          30.58           43.8          59.12           86.2
     2.484              -43.62          12.66          59.64          49.42         -4.526        -0.5487          1.908          25.72          49.82          67.43          77.71
     2.533              -45.66          12.89          58.61          51.13         -2.833         -0.014         -11.05          20.86          55.85          75.74          69.23
     2.583              -47.55           13.1          57.65          52.72         -1.269         0.4798         -23.02          16.37          61.42          83.41          61.39
     2.633              -49.17          13.28          56.82          54.08           0.08         0.9058         -33.34           12.5          66.22          90.03          54.63
     2.682              -50.51          13.43          56.14           55.2          1.187          1.255         -41.81          9.327          70.16          95.47          49.09
     2.732              -51.57          13.55          55.61           56.1          2.067          1.533         -48.55          6.801           73.3          99.79          44.67
     2.782               -52.4          13.65          55.18          56.79          2.756          1.751         -53.83          4.823          75.75          103.2          41.22
     2.831              -53.05          13.72          54.85          57.34          3.294          1.921         -57.94          3.282          77.66          105.8          38.53
     2.881              -53.56          13.78           54.6          57.76          3.713          2.053         -61.15          2.078          79.15          107.9          36.43
     2.931              -53.96          13.82           54.4           58.1          4.043          2.157         -63.68          1.131          80.33          109.5          34.77
     2.981              -54.27          13.86          54.24          58.36          4.305           2.24         -65.68         0.3788          81.26          110.8          33.46
      3.03              -54.53          13.89          54.11          58.58          4.515          2.306         -67.29        -0.2242          82.01          111.8          32.41
      3.08              -54.73          13.91           54.0          58.75          4.686           2.36         -68.59        -0.7127          82.62          112.6          31.55
      3.13               -54.9          13.93          53.92          58.89          4.825          2.404         -69.66         -1.113          83.11          113.3          30.86
     3.179              -55.04          13.94          53.85          59.01           4.94          2.441         -70.54         -1.443          83.52          113.9          30.28
